<?xml version="1.0" encoding="UTF-8" standalone="no" ?>
<!DOCTYPE svg PUBLIC "-//W3C//DTD SVG 1.1//EN" "http://www.w3.org/Graphics/SVG/1.1/DTD/svg11.dtd">
<svg xmlns="http://www.w3.org/2000/svg" xmlns:xlink="http://www.w3.org/1999/xlink" version="1.1" width="1080" height="1080" viewBox="0 0 1080 1080" xml:space="preserve">
<desc>Created with Fabric.js 5.2.4</desc>
<defs>
</defs>
<g transform="matrix(1 0 0 1 540 540)" id="4987522f-a449-4859-9dc6-eac7d6feaebb"  >
<rect style="stroke: none; stroke-width: 1; stroke-dasharray: none; stroke-linecap: butt; stroke-dashoffset: 0; stroke-linejoin: miter; stroke-miterlimit: 4; fill: rgb(255,255,255); fill-rule: nonzero; opacity: 1; visibility: hidden;" vector-effect="non-scaling-stroke"  x="-540" y="-540" rx="0" ry="0" width="1080" height="1080" />
</g>
<g transform="matrix(1 0 0 1 540 540)" id="18eed1b3-61c7-478d-868f-1b388ef0cbde"  >
</g>
<g transform="matrix(1 0 0 1 540 540)"  >
<g style="" vector-effect="non-scaling-stroke"   >
		<g transform="matrix(0.13 0 0 -0.13 -27.87 -225.94)"  >
<path style="stroke: none; stroke-width: 1; stroke-dasharray: none; stroke-linecap: butt; stroke-dashoffset: 0; stroke-linejoin: miter; stroke-miterlimit: 4; fill: rgb(255,255,255); fill-rule: nonzero; opacity: 1;" vector-effect="non-scaling-stroke"  transform=" translate(-1791.31, -3691.06)" d="M 1784 3699 C 1781 3693 1783 3683 1789 3677 C 1797 3669 1800 3672 1800 3688 C 1800 3712 1795 3716 1784 3699 z" stroke-linecap="round" />
</g>
		<g transform="matrix(0.13 0 0 -0.13 149.77 -175.51)"  >
<path style="stroke: none; stroke-width: 1; stroke-dasharray: none; stroke-linecap: butt; stroke-dashoffset: 0; stroke-linejoin: miter; stroke-miterlimit: 4; fill: rgb(255,255,255); fill-rule: nonzero; opacity: 1;" vector-effect="non-scaling-stroke"  transform=" translate(-3123.6, -3312.84)" d="M 2757 3651 C 2696 3638 2688 3624 2678 3503 C 2667 3370 2675 3223 2697 3168 C 2709 3137 2723 3123 2754 3109 C 2777 3099 2806 3090 2819 3090 C 2837 3090 2841 3086 2835 3073 C 2816 3029 2818 3013 2845 2991 C 2860 2980 2880 2970 2889 2970 C 2898 2970 2941 2991 2985 3018 L 3065 3065 L 3270 3065 C 3576 3065 3575 3064 3574 3365 C 3574 3487 3570 3565 3563 3582 C 3556 3597 3533 3618 3511 3629 C 3474 3648 3448 3650 3133 3654 C 2947 3657 2778 3656 2757 3651 z M 3403 3613 C 3572 3605 3564 3617 3563 3377 C 3562 3077 3545 3060 3246 3079 C 3093 3089 3057 3082 2982 3031 C 2919 2989 2880 2973 2880 2989 C 2880 2995 2888 3016 2897 3036 C 2914 3070 2914 3073 2897 3085 C 2888 3092 2858 3100 2831 3104 C 2804 3108 2771 3119 2759 3129 C 2737 3147 2736 3153 2732 3356 C 2727 3614 2722 3603 2847 3611 C 2979 3619 3259 3621 3403 3613 z" stroke-linecap="round" />
</g>
		<g transform="matrix(0.13 0 0 -0.13 123.9 -181)"  >
<path style="stroke: none; stroke-width: 1; stroke-dasharray: none; stroke-linecap: butt; stroke-dashoffset: 0; stroke-linejoin: miter; stroke-miterlimit: 4; fill: rgb(255,255,255); fill-rule: nonzero; opacity: 1;" vector-effect="non-scaling-stroke"  transform=" translate(-2929.59, -3354.03)" d="M 2927 3417 L 2839 3335 L 2892 3296 C 2921 3274 2960 3246 2978 3232 C 2995 3219 3010 3212 3010 3216 C 3010 3221 2976 3250 2935 3280 L 2860 3335 L 2943 3412 C 2988 3454 3023 3491 3020 3493 C 3017 3496 2975 3461 2927 3417 z" stroke-linecap="round" />
</g>
		<g transform="matrix(0.13 0 0 -0.13 179.51 -180.64)"  >
<path style="stroke: none; stroke-width: 1; stroke-dasharray: none; stroke-linecap: butt; stroke-dashoffset: 0; stroke-linejoin: miter; stroke-miterlimit: 4; fill: rgb(255,255,255); fill-rule: nonzero; opacity: 1;" vector-effect="non-scaling-stroke"  transform=" translate(-3346.65, -3351.32)" d="M 3260 3492 C 3260 3487 3296 3450 3340 3410 L 3420 3338 L 3348 3283 C 3308 3253 3273 3224 3271 3217 C 3268 3208 3270 3208 3281 3216 C 3289 3222 3324 3248 3360 3275 C 3396 3301 3429 3326 3433 3330 C 3437 3334 3400 3374 3350 3419 C 3301 3465 3260 3497 3260 3492 z" stroke-linecap="round" />
</g>
		<g transform="matrix(0.13 0 0 -0.13 152.22 -181.22)"  >
<path style="stroke: none; stroke-width: 1; stroke-dasharray: none; stroke-linecap: butt; stroke-dashoffset: 0; stroke-linejoin: miter; stroke-miterlimit: 4; fill: rgb(255,255,255); fill-rule: nonzero; opacity: 1;" vector-effect="non-scaling-stroke"  transform=" translate(-3141.97, -3355.7)" d="M 3156 3418 C 3098 3268 3079 3215 3085 3222 C 3091 3228 3200 3479 3200 3488 C 3200 3489 3197 3490 3192 3490 C 3188 3490 3172 3457 3156 3418 z" stroke-linecap="round" />
</g>
		<g transform="matrix(0.13 0 0 -0.13 -33.36 -219.76)"  >
<path style="stroke: none; stroke-width: 1; stroke-dasharray: none; stroke-linecap: butt; stroke-dashoffset: 0; stroke-linejoin: miter; stroke-miterlimit: 4; fill: rgb(255,255,255); fill-rule: nonzero; opacity: 1;" vector-effect="non-scaling-stroke"  transform=" translate(-1750.18, -3644.75)" d="M 1738 3643 C 1744 3641 1756 3641 1763 3643 C 1769 3646 1764 3648 1750 3648 C 1736 3648 1731 3646 1738 3643 z" stroke-linecap="round" />
</g>
		<g transform="matrix(0.13 0 0 -0.13 -22.69 -219.76)"  >
<path style="stroke: none; stroke-width: 1; stroke-dasharray: none; stroke-linecap: butt; stroke-dashoffset: 0; stroke-linejoin: miter; stroke-miterlimit: 4; fill: rgb(255,255,255); fill-rule: nonzero; opacity: 1;" vector-effect="non-scaling-stroke"  transform=" translate(-1830.18, -3644.75)" d="M 1818 3643 C 1824 3641 1836 3641 1843 3643 C 1849 3646 1844 3648 1830 3648 C 1816 3648 1811 3646 1818 3643 z" stroke-linecap="round" />
</g>
		<g transform="matrix(0.13 0 0 -0.13 -26.71 -213.79)"  >
<path style="stroke: none; stroke-width: 1; stroke-dasharray: none; stroke-linecap: butt; stroke-dashoffset: 0; stroke-linejoin: miter; stroke-miterlimit: 4; fill: rgb(255,255,255); fill-rule: nonzero; opacity: 1;" vector-effect="non-scaling-stroke"  transform=" translate(-1800, -3600)" d="M 1790 3606 C 1790 3598 1795 3588 1800 3585 C 1806 3582 1810 3586 1810 3594 C 1810 3602 1806 3612 1800 3615 C 1795 3618 1790 3614 1790 3606 z" stroke-linecap="round" />
</g>
		<g transform="matrix(0.13 0 0 -0.13 -7.08 -213.26)"  >
<path style="stroke: none; stroke-width: 1; stroke-dasharray: none; stroke-linecap: butt; stroke-dashoffset: 0; stroke-linejoin: miter; stroke-miterlimit: 4; fill: rgb(255,255,255); fill-rule: nonzero; opacity: 1;" vector-effect="non-scaling-stroke"  transform=" translate(-1947.25, -3596.01)" d="M 1927 3613 C 1915 3602 1920 3580 1935 3574 C 1955 3566 1980 3587 1973 3606 C 1968 3620 1939 3625 1927 3613 z M 1960 3595 C 1960 3587 1953 3580 1945 3580 C 1929 3580 1925 3592 1937 3603 C 1948 3615 1960 3611 1960 3595 z" stroke-linecap="round" />
</g>
		<g transform="matrix(0.13 0 0 -0.13 0 9.29)"  >
<path style="stroke: none; stroke-width: 1; stroke-dasharray: none; stroke-linecap: butt; stroke-dashoffset: 0; stroke-linejoin: miter; stroke-miterlimit: 4; fill: rgb(255,255,255); fill-rule: nonzero; opacity: 1;" vector-effect="non-scaling-stroke"  transform=" translate(-2000.35, -1926.85)" d="M 449 3563 L 212 3560 L 205 2957 C 201 2626 199 2260 201 2143 C 206 1899 199 1915 310 1879 C 371 1859 566 1843 772 1841 L 830 1840 L 807 1798 C 772 1730 776 1625 816 1539 L 847 1473 L 723 1279 C 587 1068 548 997 531 932 C 522 899 515 890 497 890 C 466 890 434 865 404 819 C 384 786 374 780 346 780 C 315 780 304 770 209 655 C 152 586 104 524 102 517 C 98 502 142 550 241 673 C 314 762 324 770 355 770 C 388 770 390 768 390 737 C 390 655 494 528 604 476 C 729 417 956 377 1182 376 L 1330 375 L 1330 344 L 1330 313 L 1438 306 C 1533 300 1634 304 1917 326 C 1990 332 2001 330 2025 312 C 2069 277 2105 275 2163 303 C 2193 318 2250 333 2298 340 C 2497 367 2787 431 2829 457 C 2850 471 2854 470 2881 444 C 2918 409 2943 410 3051 449 C 3150 486 3221 528 3245 564 C 3272 604 3275 687 3253 753 L 3233 810 L 3394 810 L 3555 810 L 3720 674 C 3895 530 3907 520 3896 539 C 3888 551 3610 785 3572 812 C 3552 826 3524 827 3387 823 C 3235 818 3223 819 3190 839 C 3156 858 3153 866 3131 957 C 3096 1102 3038 1270 2975 1410 C 2944 1479 2918 1537 2918 1540 C 2917 1543 2924 1569 2933 1599 C 2954 1667 2954 1711 2934 1781 C 2914 1848 2837 1929 2774 1948 C 2723 1963 2604 1964 2562 1949 C 2533 1939 2525 1942 2471 1978 C 2391 2031 2180 2110 2115 2110 C 2104 2110 2080 2128 2063 2150 C 2018 2204 2018 2254 2064 2225 C 2075 2218 2126 2197 2175 2179 C 2258 2150 2275 2147 2395 2146 C 2542 2145 2579 2157 2637 2223 C 2676 2268 2693 2320 2726 2505 C 2760 2691 2764 2841 2737 2917 C 2688 3057 2510 3141 2262 3141 L 2154 3141 L 2126 3197 C 2107 3237 2101 3261 2105 3282 C 2113 3317 2097 3340 2064 3340 C 2038 3340 2017 3310 2026 3286 C 2029 3277 2043 3267 2057 3264 C 2074 3259 2090 3240 2110 3199 L 2140 3141 L 2092 3120 C 2001 3080 1953 3014 1921 2888 L 1903 2817 L 1845 2916 C 1813 2970 1780 3027 1772 3042 C 1757 3068 1757 3071 1783 3098 C 1798 3113 1810 3134 1810 3144 C 1810 3163 1789 3163 1734 3145 C 1719 3140 1711 3145 1702 3165 C 1676 3221 1690 3250 1743 3250 C 1762 3250 1761 3247 1730 3215 C 1711 3196 1701 3180 1706 3180 C 1721 3180 1770 3234 1770 3249 C 1770 3258 1758 3261 1731 3258 L 1692 3255 L 1685 3412 L 1678 3570 L 1181 3568 C 908 3566 579 3564 449 3563 z M 1670 3399 C 1670 3292 1667 3241 1660 3245 C 1654 3249 1652 3266 1655 3284 C 1663 3322 1644 3343 1608 3338 C 1565 3332 1576 3260 1620 3260 C 1649 3260 1651 3232 1625 3194 C 1595 3150 1601 3136 1646 3143 L 1680 3149 L 1680 2856 C 1680 2695 1683 2455 1687 2322 C 1693 2083 1693 2080 1673 2080 C 1636 2080 1476 2030 1401 1994 L 1327 1960 L 1284 1976 C 1251 1989 1219 1991 1148 1988 C 1038 1982 969 1959 891 1899 L 836 1857 L 621 1863 C 396 1869 347 1876 268 1912 L 220 1933 L 220 2742 L 220 3550 L 882 3553 C 1247 3554 1573 3556 1608 3558 L 1670 3560 L 1670 3399 z M 1666 3164 C 1625 3135 1604 3155 1637 3192 C 1652 3209 1655 3209 1669 3195 C 1684 3180 1683 3177 1666 3164 z M 1703 3137 C 1706 3129 1704 3117 1699 3109 C 1693 3099 1690 3102 1690 3123 C 1690 3152 1695 3158 1703 3137 z M 1794 3141 C 1797 3137 1788 3122 1774 3109 C 1753 3089 1747 3088 1740 3100 C 1733 3111 1736 3120 1751 3133 C 1774 3152 1786 3154 1794 3141 z M 2423 3111 C 2431 3103 2429 3100 2417 3100 C 2396 3100 2314 3058 2284 3032 C 2172 2935 2118 2745 2116 2435 C 2115 2301 2118 2270 2133 2241 C 2142 2222 2149 2205 2147 2204 C 2140 2197 1982 2281 1948 2310 C 1902 2349 1890 2388 1890 2508 L 1890 2601 L 1918 2586 C 2031 2528 2143 2618 2110 2741 C 2094 2800 2058 2830 2003 2830 C 1979 2830 1950 2825 1938 2819 C 1919 2809 1918 2810 1925 2851 C 1950 2998 2023 3092 2133 3121 C 2178 3133 2409 3125 2423 3111 z M 1730 3084 C 1730 3076 1723 3070 1715 3070 C 1698 3070 1697 3072 1706 3094 C 1713 3112 1730 3106 1730 3084 z M 2568 3070 C 2634 3040 2674 3004 2706 2948 C 2748 2870 2751 2748 2715 2540 C 2701 2455 2687 2384 2685 2382 C 2672 2369 2513 2363 2388 2370 C 2231 2380 2201 2385 2158 2407 C 2133 2419 2130 2426 2130 2475 C 2130 2538 2156 2744 2172 2810 C 2223 3019 2410 3142 2568 3070 z M 1821 2928 L 1898 2797 L 1878 2764 C 1862 2737 1859 2720 1864 2682 C 1868 2656 1874 2577 1878 2505 C 1882 2434 1888 2370 1892 2364 C 1896 2358 1894 2314 1888 2267 C 1877 2185 1875 2182 1844 2166 C 1826 2158 1804 2137 1795 2120 C 1782 2094 1774 2090 1740 2090 L 1700 2090 L 1700 2448 C 1700 2646 1697 2861 1694 2927 C 1687 3056 1686 3054 1735 3059 C 1741 3059 1779 3000 1821 2928 z M 2013 2799 C 2070 2773 2082 2705 2045 2625 C 1999 2530 1861 2598 1873 2709 C 1876 2732 1885 2759 1893 2767 C 1907 2781 1910 2779 1924 2752 C 1933 2735 1940 2713 1940 2702 C 1940 2678 1948 2670 1966 2677 C 1984 2684 1984 2707 1966 2717 C 1959 2721 1945 2740 1935 2759 C 1921 2787 1921 2794 1932 2801 C 1950 2813 1984 2812 2013 2799 z M 2251 2371 C 2353 2355 2550 2348 2618 2358 L 2682 2367 L 2676 2338 C 2646 2189 2513 2126 2300 2161 C 2170 2181 2130 2225 2130 2343 L 2130 2411 L 2159 2396 C 2175 2387 2216 2376 2251 2371 z M 1896 2073 C 1949 2039 2020 2066 2020 2120 C 2020 2156 2030 2163 2052 2143 C 2072 2125 2075 2089 2060 2060 C 2032 2008 1853 2011 1818 2064 C 1801 2089 1810 2129 1838 2150 L 1865 2172 L 1868 2131 C 1870 2100 1877 2086 1896 2073 z M 1650 2033 C 1650 1987 1690 1920 1739 1885 C 1876 1785 2083 1786 2185 1888 C 2230 1932 2240 1957 2240 2017 L 2240 2063 L 2273 2056 C 2290 2053 2342 2032 2387 2010 C 2581 1918 2655 1783 2667 1498 L 2673 1360 L 2634 1359 C 2613 1358 2538 1358 2469 1360 C 2359 1362 2338 1360 2293 1340 C 2264 1328 2234 1310 2225 1300 C 2208 1282 2206 1282 2152 1313 C 2103 1340 2084 1345 2005 1348 C 1953 1350 1870 1345 1807 1336 C 1669 1315 1557 1315 1496 1336 C 1470 1345 1447 1350 1444 1348 C 1442 1345 1428 1271 1415 1184 C 1401 1097 1382 991 1372 950 L 1354 875 L 1315 879 C 1239 885 1236 889 1212 997 C 1192 1087 1170 1211 1170 1235 C 1170 1241 1190 1251 1214 1258 C 1379 1302 1509 1562 1455 1745 C 1434 1820 1408 1870 1369 1915 C 1351 1935 1339 1952 1341 1954 C 1369 1979 1587 2059 1628 2060 C 1645 2060 1650 2054 1650 2033 z M 1912 2013 C 1983 2006 2031 2015 2058 2041 C 2088 2069 2088 2040 2058 2005 C 2042 1987 2018 1977 1978 1969 C 1886 1953 1824 1977 1805 2039 L 1798 2062 L 1827 2041 C 1845 2027 1878 2017 1912 2013 z M 1263 1969 C 1317 1954 1371 1901 1410 1825 C 1505 1638 1422 1366 1245 1284 C 1168 1247 1160 1250 1160 1314 C 1160 1375 1121 1519 1086 1588 C 1056 1645 1007 1694 958 1714 C 909 1735 894 1734 869 1709 C 851 1691 849 1680 854 1644 C 857 1619 867 1586 875 1569 C 890 1541 890 1536 874 1512 L 856 1485 L 826 1550 C 725 1767 889 1975 1165 1979 C 1198 1980 1242 1975 1263 1969 z M 2816 1914 C 2888 1870 2924 1806 2928 1714 C 2934 1609 2912 1550 2841 1479 C 2787 1425 2750 1400 2703 1386 C 2682 1379 2681 1381 2687 1428 C 2701 1547 2642 1788 2577 1879 L 2541 1929 L 2568 1939 C 2583 1945 2634 1948 2682 1947 C 2758 1944 2774 1940 2816 1914 z M 1033 1643 C 1069 1605 1103 1524 1096 1494 C 1088 1462 1080 1464 1049 1509 C 1034 1529 1004 1555 982 1566 L 941 1585 L 968 1627 C 983 1651 998 1670 1001 1670 C 1004 1670 1018 1658 1033 1643 z M 1018 1528 C 1031 1515 1048 1493 1056 1478 C 1069 1453 1068 1447 1043 1402 L 1016 1353 L 967 1391 C 940 1413 906 1433 892 1436 C 848 1447 848 1449 890 1510 C 929 1567 931 1568 962 1560 C 979 1555 1004 1540 1018 1528 z M 3044 1212 C 3064 1155 3080 1105 3080 1100 C 3080 1096 3070 1095 3057 1097 C 3044 1100 3017 1095 2997 1086 L 2960 1071 L 2960 1099 C 2960 1114 2965 1153 2970 1186 C 2992 1310 2992 1310 2977 1310 C 2970 1310 2953 1322 2941 1336 C 2925 1355 2912 1360 2895 1356 C 2881 1352 2867 1356 2859 1366 C 2848 1379 2833 1381 2780 1376 L 2715 1370 L 2766 1399 C 2794 1416 2837 1451 2861 1479 L 2905 1529 L 2957 1422 C 2985 1363 3024 1268 3044 1212 z M 936 1398 C 1005 1351 1007 1342 973 1287 L 943 1241 L 919 1266 C 890 1297 829 1330 800 1330 C 775 1330 775 1330 807 1385 C 841 1441 868 1444 936 1398 z M 2850 1355 C 2860 1343 2857 1340 2833 1334 C 2766 1319 2745 1312 2765 1311 C 2777 1310 2812 1317 2843 1325 C 2875 1333 2907 1340 2914 1340 C 2928 1340 2945 1311 2936 1303 C 2929 1296 2366 1200 2355 1203 C 2342 1208 2467 1236 2540 1245 C 2606 1253 2712 1279 2723 1289 C 2727 1293 2698 1289 2658 1279 C 2618 1270 2542 1255 2490 1247 C 2398 1233 2377 1226 2316 1193 C 2264 1165 2220 1166 2104 1199 C 1985 1234 1888 1245 1644 1255 L 1484 1261 L 1462 1143 C 1450 1078 1435 983 1428 932 C 1418 857 1412 839 1397 834 C 1360 822 1358 844 1384 951 C 1398 1008 1419 1116 1430 1190 C 1442 1264 1453 1326 1455 1328 C 1457 1330 1474 1327 1492 1321 C 1551 1302 1623 1298 1705 1309 C 2009 1350 2070 1348 2161 1291 C 2207 1262 2209 1262 2226 1281 C 2235 1291 2263 1310 2289 1322 C 2331 1343 2350 1345 2520 1345 C 2622 1346 2725 1349 2750 1353 C 2794 1360 2793 1359 2735 1339 C 2689 1323 2638 1317 2515 1311 C 2412 1307 2346 1300 2330 1291 C 2296 1273 2270 1249 2270 1237 C 2270 1231 2282 1238 2298 1252 C 2336 1289 2388 1300 2519 1300 C 2642 1300 2787 1329 2797 1356 C 2804 1374 2834 1374 2850 1355 z M 843 1304 C 878 1286 930 1241 930 1228 C 930 1222 878 1130 864 1111 C 862 1109 840 1126 814 1149 C 788 1172 754 1194 738 1198 C 723 1202 709 1208 707 1212 C 706 1216 718 1241 735 1269 C 768 1326 787 1332 843 1304 z M 1059 1280 C 1083 1263 1115 1250 1129 1250 C 1155 1250 1156 1248 1168 1156 C 1175 1104 1191 1023 1204 975 L 1227 889 L 1131 895 C 1078 899 975 905 902 908 L 770 915 L 850 1054 C 938 1207 1002 1310 1010 1310 C 1013 1310 1035 1296 1059 1280 z M 758 1176 C 773 1168 800 1146 819 1127 L 853 1091 L 826 1045 L 799 999 L 767 1026 C 729 1058 680 1080 645 1080 C 631 1080 620 1082 620 1085 C 620 1088 634 1112 651 1140 C 685 1195 707 1202 758 1176 z M 2302 1083 C 2290 1035 2276 968 2271 935 C 2262 884 2200 372 2200 349 C 2200 333 2131 300 2098 300 C 2078 300 2052 309 2038 320 L 2012 340 L 2027 407 C 2045 492 2124 965 2140 1081 L 2152 1168 L 2214 1163 C 2250 1160 2285 1162 2296 1168 C 2306 1174 2316 1177 2318 1175 C 2320 1173 2313 1132 2302 1083 z M 3099 1043 C 3114 989 3115 990 3066 990 C 3041 990 3018 986 3015 980 C 3003 960 2991 971 2978 1011 C 2967 1048 2968 1054 2985 1066 C 2995 1074 3023 1080 3046 1080 C 3087 1080 3090 1078 3099 1043 z M 708 1050 C 728 1040 756 1022 769 1011 L 794 992 L 775 951 C 754 903 728 898 659 930 C 635 941 606 949 595 949 C 584 949 598 941 625 933 L 675 916 L 630 909 C 560 897 540 899 540 914 C 540 922 546 935 553 942 C 559 949 565 961 566 968 C 569 999 571 1007 590 1038 C 614 1077 651 1081 708 1050 z M 2750 1050 C 2732 1040 2377 979 2371 986 C 2362 995 2379 999 2535 1028 C 2701 1059 2777 1067 2750 1050 z M 2980 972 C 2994 930 3006 889 3008 883 C 3011 874 2996 870 2960 870 C 2908 870 2908 870 2913 898 C 2917 913 2925 953 2931 988 C 2938 1022 2946 1050 2949 1050 C 2952 1050 2966 1015 2980 972 z M 3127 923 C 3133 891 3137 865 3136 864 C 3136 863 3113 866 3085 869 C 3040 874 3033 879 3018 910 C 3002 941 3002 945 3017 962 C 3028 974 3047 980 3075 980 L 3117 980 L 3127 923 z M 2705 931 C 2696 923 2399 860 2369 860 C 2334 860 2384 875 2517 905 C 2675 940 2720 946 2705 931 z M 866 850 C 775 766 723 575 764 476 C 773 455 780 436 780 435 C 780 427 672 462 616 488 C 439 571 355 744 443 845 C 473 880 523 888 732 889 L 910 890 L 866 850 z M 1218 873 L 1251 868 L 1232 846 C 1164 773 1151 498 1211 417 L 1233 387 L 1094 394 C 920 402 811 421 793 446 C 720 545 784 785 904 865 C 944 891 947 892 1065 885 C 1131 882 1200 876 1218 873 z M 1353 838 C 1374 813 1371 808 1328 806 C 1304 805 1291 797 1281 778 C 1268 755 1268 750 1283 726 C 1293 712 1308 700 1318 701 C 1331 701 1329 704 1313 710 C 1297 717 1290 728 1290 748 C 1290 790 1301 794 1319 757 C 1332 730 1340 725 1368 726 C 1388 727 1400 723 1400 715 C 1400 694 1348 666 1313 668 C 1290 670 1278 665 1270 651 C 1258 627 1271 585 1295 576 C 1323 566 1326 569 1302 586 C 1274 606 1275 653 1303 658 C 1318 661 1321 658 1315 640 C 1307 613 1325 590 1355 590 C 1376 590 1377 587 1371 563 C 1364 539 1359 535 1330 538 C 1289 541 1270 526 1270 490 C 1270 455 1292 436 1325 444 C 1353 451 1354 451 1340 416 C 1332 394 1324 390 1290 390 C 1210 390 1186 450 1192 635 C 1195 734 1199 762 1218 797 C 1257 871 1311 888 1353 838 z M 3170 834 C 3227 801 3244 768 3248 686 C 3253 595 3239 564 3171 520 C 3128 493 3020 445 3020 453 C 3020 454 3029 473 3040 495 C 3082 577 3055 767 2993 832 L 2965 862 L 3051 858 C 3112 855 3146 848 3170 834 z M 1554 821 C 1608 783 1622 766 1614 746 C 1605 721 1582 727 1536 765 C 1512 784 1489 800 1484 800 C 1479 800 1449 784 1417 764 C 1370 735 1356 731 1345 740 C 1316 764 1329 785 1393 817 C 1471 857 1500 858 1554 821 z M 2984 821 C 3016 787 3050 687 3050 624 C 3050 486 2968 391 2895 443 C 2875 458 2882 480 2907 480 C 2929 480 2960 509 2960 530 C 2960 562 2934 574 2888 562 C 2865 556 2845 552 2844 553 C 2842 554 2845 571 2849 590 C 2855 620 2860 626 2892 631 C 2941 639 2962 657 2958 689 C 2955 712 2950 715 2913 718 C 2889 720 2870 725 2870 731 C 2870 736 2877 740 2885 740 C 2902 740 2940 775 2940 790 C 2940 796 2931 808 2920 817 C 2893 841 2895 850 2928 850 C 2946 850 2966 840 2984 821 z M 2665 820 C 2668 815 2669 810 2667 810 C 2665 810 2608 799 2542 785 C 2403 756 2410 757 2410 770 C 2410 776 2420 780 2433 780 C 2445 781 2498 792 2550 805 C 2663 833 2657 832 2665 820 z M 2904 814 C 2925 806 2924 773 2903 762 C 2887 753 2735 719 2700 716 C 2690 715 2685 724 2685 740 C 2685 762 2691 766 2745 778 C 2791 789 2870 811 2887 819 C 2888 820 2895 817 2904 814 z M 1534 674 C 1565 649 1590 625 1590 621 C 1590 616 1583 607 1575 600 C 1557 585 1525 598 1489 636 L 1468 659 L 1413 630 C 1370 607 1354 603 1339 611 C 1329 616 1320 624 1320 629 C 1320 644 1443 720 1467 720 C 1473 720 1503 700 1534 674 z M 2945 700 C 2948 694 2949 681 2945 671 C 2939 650 2865 633 2760 628 C 2708 626 2705 627 2705 650 C 2705 673 2710 676 2767 683 C 2801 687 2839 694 2852 700 C 2883 712 2937 712 2945 700 z M 2944 543 C 2956 513 2919 493 2821 475 C 2721 457 2706 461 2712 501 C 2715 522 2721 525 2765 527 C 2793 528 2838 536 2865 544 C 2931 563 2937 563 2944 543 z M 1495 515 C 1533 482 1534 480 1517 463 C 1503 448 1497 448 1482 458 C 1437 490 1421 494 1380 480 C 1349 470 1337 469 1328 478 C 1313 493 1323 503 1375 529 C 1430 557 1449 555 1495 515 z M 1314 505 C 1310 490 1313 473 1320 465 C 1330 453 1329 450 1312 450 C 1289 450 1275 480 1285 510 C 1295 541 1322 536 1314 505 z" stroke-linecap="round" />
</g>
		<g transform="matrix(0.13 0 0 -0.13 -139.99 -148.07)"  >
<path style="stroke: none; stroke-width: 1; stroke-dasharray: none; stroke-linecap: butt; stroke-dashoffset: 0; stroke-linejoin: miter; stroke-miterlimit: 4; fill: rgb(255,255,255); fill-rule: nonzero; opacity: 1;" vector-effect="non-scaling-stroke"  transform=" translate(-950.38, -3107.09)" d="M 750 3440 C 742 3435 725 3430 712 3430 C 678 3430 614 3385 538 3308 C 488 3257 469 3230 464 3202 C 460 3182 446 3144 432 3117 C 413 3080 409 3062 415 3032 C 419 3012 423 2969 423 2937 C 425 2886 429 2875 453 2854 C 484 2828 527 2823 578 2841 C 602 2849 626 2848 680 2836 C 734 2823 760 2822 788 2830 C 848 2846 884 2842 943 2810 C 1057 2749 1145 2750 1194 2813 C 1241 2873 1247 2877 1298 2884 C 1360 2892 1405 2926 1414 2972 C 1417 2990 1437 3021 1456 3042 C 1488 3074 1492 3082 1486 3114 C 1481 3138 1464 3164 1429 3197 C 1401 3223 1370 3259 1359 3276 C 1346 3297 1318 3317 1271 3339 C 1232 3357 1187 3384 1171 3399 C 1138 3430 1096 3442 1061 3433 C 1048 3430 1014 3433 984 3440 C 935 3452 923 3451 879 3436 C 833 3419 828 3419 811 3434 C 791 3452 772 3454 750 3440 z M 1016 3423 C 1058 3419 1070 3413 1084 3390 C 1105 3353 1104 3333 1080 3320 C 1065 3312 1054 3313 1035 3326 C 1012 3341 1008 3341 975 3326 C 948 3313 936 3312 919 3320 C 908 3327 896 3329 893 3327 C 891 3324 898 3316 911 3310 C 928 3300 941 3301 971 3310 C 1020 3326 1045 3318 1030 3290 C 1023 3277 1023 3270 1030 3270 C 1035 3270 1040 3275 1040 3281 C 1040 3286 1055 3297 1074 3305 C 1118 3324 1125 3345 1101 3386 C 1082 3417 1082 3420 1098 3420 C 1119 3420 1180 3384 1180 3372 C 1180 3367 1200 3355 1225 3346 C 1254 3335 1270 3322 1270 3311 C 1270 3284 1243 3253 1213 3245 C 1182 3238 1160 3222 1160 3208 C 1160 3203 1167 3206 1176 3214 C 1184 3223 1200 3230 1211 3230 C 1237 3230 1280 3273 1280 3299 C 1280 3327 1316 3315 1342 3276 C 1354 3259 1379 3228 1399 3206 L 1435 3167 L 1405 3175 C 1389 3179 1359 3182 1340 3182 C 1321 3181 1300 3186 1293 3192 C 1284 3199 1280 3199 1280 3191 C 1280 3185 1290 3178 1303 3176 C 1358 3164 1397 3159 1422 3159 C 1445 3159 1479 3135 1469 3126 C 1467 3124 1236 3120 957 3117 C 481 3111 449 3112 455 3128 C 459 3137 469 3167 477 3193 C 487 3228 508 3258 554 3305 C 620 3371 695 3424 709 3416 C 713 3413 731 3416 748 3422 C 773 3432 784 3431 805 3420 C 827 3408 837 3409 878 3423 C 904 3431 934 3436 945 3433 C 956 3431 988 3426 1016 3423 z" stroke-linecap="round" />
</g>
		<g transform="matrix(0.13 0 0 -0.13 -176.74 -165.81)"  >
<path style="stroke: none; stroke-width: 1; stroke-dasharray: none; stroke-linecap: butt; stroke-dashoffset: 0; stroke-linejoin: miter; stroke-miterlimit: 4; fill: rgb(255,255,255); fill-rule: nonzero; opacity: 1;" vector-effect="non-scaling-stroke"  transform=" translate(-674.81, -3240.13)" d="M 590 3301 C 595 3290 600 3265 600 3245 C 600 3217 605 3208 624 3200 C 637 3195 654 3183 660 3173 C 671 3156 671 3156 666 3173 C 663 3183 660 3194 660 3196 C 660 3199 649 3205 635 3210 C 603 3222 604 3234 635 3266 C 658 3289 666 3291 713 3286 L 765 3280 L 720 3295 C 679 3308 673 3308 644 3290 L 612 3272 L 606 3296 C 602 3309 595 3320 589 3320 C 583 3320 583 3314 590 3301 z" stroke-linecap="round" />
</g>
		<g transform="matrix(0.13 0 0 -0.13 -117.22 -85.81)"  >
<path style="stroke: none; stroke-width: 1; stroke-dasharray: none; stroke-linecap: butt; stroke-dashoffset: 0; stroke-linejoin: miter; stroke-miterlimit: 4; fill: rgb(255,255,255); fill-rule: nonzero; opacity: 1;" vector-effect="non-scaling-stroke"  transform=" translate(-1121.17, -2640.15)" d="M 1105 2650 C 1097 2636 1108 2620 1126 2620 C 1134 2620 1140 2629 1140 2640 C 1140 2661 1116 2668 1105 2650 z M 1130 2640 C 1130 2635 1126 2630 1120 2630 C 1115 2630 1110 2635 1110 2640 C 1110 2646 1115 2650 1120 2650 C 1126 2650 1130 2646 1130 2640 z" stroke-linecap="round" />
</g>
		<g transform="matrix(0.13 0 0 -0.13 -111.61 -77.98)"  >
<path style="stroke: none; stroke-width: 1; stroke-dasharray: none; stroke-linecap: butt; stroke-dashoffset: 0; stroke-linejoin: miter; stroke-miterlimit: 4; fill: rgb(255,255,255); fill-rule: nonzero; opacity: 1;" vector-effect="non-scaling-stroke"  transform=" translate(-1163.29, -2581.41)" d="M 1157 2584 C 1136 2542 1121 2505 1124 2503 C 1127 2500 1147 2534 1169 2579 C 1192 2624 1207 2660 1202 2660 C 1198 2660 1177 2626 1157 2584 z" stroke-linecap="round" />
</g>
		<g transform="matrix(0.13 0 0 -0.13 -161.5 -75.95)"  >
<path style="stroke: none; stroke-width: 1; stroke-dasharray: none; stroke-linecap: butt; stroke-dashoffset: 0; stroke-linejoin: miter; stroke-miterlimit: 4; fill: rgb(255,255,255); fill-rule: nonzero; opacity: 1;" vector-effect="non-scaling-stroke"  transform=" translate(-789.12, -2566.2)" d="M 753 2634 C 746 2631 736 2614 730 2596 C 709 2533 755 2481 816 2496 C 845 2503 863 2539 848 2558 C 833 2575 774 2573 756 2554 C 741 2540 740 2541 740 2569 C 740 2606 766 2633 797 2627 C 809 2625 820 2627 820 2631 C 820 2640 774 2642 753 2634 z M 835 2535 C 835 2520 827 2514 806 2512 C 769 2508 752 2523 770 2545 C 789 2568 835 2561 835 2535 z" stroke-linecap="round" />
</g>
		<g transform="matrix(0.13 0 0 -0.13 -138.06 -77.08)"  >
<path style="stroke: none; stroke-width: 1; stroke-dasharray: none; stroke-linecap: butt; stroke-dashoffset: 0; stroke-linejoin: miter; stroke-miterlimit: 4; fill: rgb(255,255,255); fill-rule: nonzero; opacity: 1;" vector-effect="non-scaling-stroke"  transform=" translate(-964.88, -2574.61)" d="M 922 2628 C 903 2609 907 2546 928 2527 C 971 2488 1020 2517 1020 2580 C 1020 2609 1015 2622 1001 2630 C 975 2644 937 2643 922 2628 z M 994 2614 C 1014 2595 1015 2560 997 2535 C 977 2509 932 2522 924 2556 C 910 2612 957 2651 994 2614 z" stroke-linecap="round" />
</g>
		<g transform="matrix(0.13 0 0 -0.13 -105.71 -71.13)"  >
<path style="stroke: none; stroke-width: 1; stroke-dasharray: none; stroke-linecap: butt; stroke-dashoffset: 0; stroke-linejoin: miter; stroke-miterlimit: 4; fill: rgb(255,255,255); fill-rule: nonzero; opacity: 1;" vector-effect="non-scaling-stroke"  transform=" translate(-1207.5, -2530)" d="M 1190 2530 C 1190 2515 1195 2510 1208 2512 C 1217 2514 1225 2522 1225 2530 C 1225 2538 1217 2546 1208 2548 C 1195 2550 1190 2545 1190 2530 z M 1220 2530 C 1220 2525 1216 2520 1210 2520 C 1205 2520 1200 2525 1200 2530 C 1200 2536 1205 2540 1210 2540 C 1216 2540 1220 2536 1220 2530 z" stroke-linecap="round" />
</g>
		<g transform="matrix(0.13 0 0 -0.13 -140.05 -44.66)"  >
<path style="stroke: none; stroke-width: 1; stroke-dasharray: none; stroke-linecap: butt; stroke-dashoffset: 0; stroke-linejoin: miter; stroke-miterlimit: 4; fill: rgb(255,255,255); fill-rule: nonzero; opacity: 1;" vector-effect="non-scaling-stroke"  transform=" translate(-950, -2331.52)" d="M 552 2393 L 429 2389 L 432 2327 L 435 2265 L 950 2265 L 1465 2265 L 1468 2326 L 1471 2387 L 1433 2394 C 1396 2400 802 2399 552 2393 z M 550 2325 C 550 2295 546 2270 540 2270 C 535 2270 530 2295 530 2325 C 530 2355 535 2380 540 2380 C 546 2380 550 2355 550 2325 z M 610 2325 C 610 2283 607 2270 595 2270 C 583 2270 580 2283 580 2325 C 580 2367 583 2380 595 2380 C 607 2380 610 2367 610 2325 z M 680 2325 C 680 2277 678 2270 660 2270 C 642 2270 640 2277 640 2325 C 640 2373 642 2380 660 2380 C 678 2380 680 2373 680 2325 z M 750 2325 C 750 2277 748 2270 730 2270 C 712 2270 710 2277 710 2325 C 710 2373 712 2380 730 2380 C 748 2380 750 2373 750 2325 z M 820 2325 C 820 2283 817 2270 805 2270 C 793 2270 790 2283 790 2325 C 790 2367 793 2380 805 2380 C 817 2380 820 2367 820 2325 z M 880 2325 C 880 2295 876 2270 870 2270 C 865 2270 860 2295 860 2325 C 860 2355 865 2380 870 2380 C 876 2380 880 2355 880 2325 z M 940 2325 C 940 2295 936 2270 930 2270 C 925 2270 920 2295 920 2325 C 920 2355 925 2380 930 2380 C 936 2380 940 2355 940 2325 z M 1450 2325 L 1450 2270 L 1215 2270 L 980 2270 L 980 2325 L 980 2380 L 1215 2380 L 1450 2380 L 1450 2325 z" stroke-linecap="round" />
</g>
		<g transform="matrix(0.13 0 0 -0.13 50.16 -99.4)"  >
<path style="stroke: none; stroke-width: 1; stroke-dasharray: none; stroke-linecap: butt; stroke-dashoffset: 0; stroke-linejoin: miter; stroke-miterlimit: 4; fill: rgb(255,255,255); fill-rule: nonzero; opacity: 1;" vector-effect="non-scaling-stroke"  transform=" translate(-2376.53, -2742.02)" d="M 2328 2769 C 2353 2761 2360 2754 2361 2732 L 2362 2705 L 2369 2730 C 2374 2749 2383 2756 2408 2758 C 2470 2764 2439 2780 2368 2779 C 2305 2778 2300 2777 2328 2769 z" stroke-linecap="round" />
</g>
		<g transform="matrix(0.13 0 0 -0.13 84.49 -97.05)"  >
<path style="stroke: none; stroke-width: 1; stroke-dasharray: none; stroke-linecap: butt; stroke-dashoffset: 0; stroke-linejoin: miter; stroke-miterlimit: 4; fill: rgb(255,255,255); fill-rule: nonzero; opacity: 1;" vector-effect="non-scaling-stroke"  transform=" translate(-2634.03, -2724.45)" d="M 2590 2751 C 2590 2746 2602 2739 2616 2736 C 2636 2731 2641 2724 2637 2710 C 2634 2699 2636 2690 2641 2690 C 2646 2690 2650 2696 2650 2704 C 2650 2713 2658 2717 2673 2714 C 2685 2711 2675 2720 2650 2734 C 2601 2761 2590 2765 2590 2751 z" stroke-linecap="round" />
</g>
		<g transform="matrix(0.13 0 0 -0.13 47.45 -84.24)"  >
<path style="stroke: none; stroke-width: 1; stroke-dasharray: none; stroke-linecap: butt; stroke-dashoffset: 0; stroke-linejoin: miter; stroke-miterlimit: 4; fill: rgb(255,255,255); fill-rule: nonzero; opacity: 1;" vector-effect="non-scaling-stroke"  transform=" translate(-2356.25, -2628.34)" d="M 2322 2674 C 2279 2644 2302 2568 2354 2568 C 2391 2568 2413 2592 2413 2631 C 2413 2683 2367 2706 2322 2674 z" stroke-linecap="round" />
</g>
		<g transform="matrix(0.13 0 0 -0.13 77.49 -81.13)"  >
<path style="stroke: none; stroke-width: 1; stroke-dasharray: none; stroke-linecap: butt; stroke-dashoffset: 0; stroke-linejoin: miter; stroke-miterlimit: 4; fill: rgb(255,255,255); fill-rule: nonzero; opacity: 1;" vector-effect="non-scaling-stroke"  transform=" translate(-2581.52, -2605)" d="M 2544 2644 C 2524 2625 2520 2613 2525 2592 C 2531 2564 2555 2540 2576 2540 C 2599 2540 2640 2582 2640 2606 C 2640 2633 2608 2670 2585 2670 C 2576 2670 2558 2659 2544 2644 z" stroke-linecap="round" />
</g>
		<g transform="matrix(0.13 0 0 -0.13 22.52 -46.33)"  >
<path style="stroke: none; stroke-width: 1; stroke-dasharray: none; stroke-linecap: butt; stroke-dashoffset: 0; stroke-linejoin: miter; stroke-miterlimit: 4; fill: rgb(255,255,255); fill-rule: nonzero; opacity: 1;" vector-effect="non-scaling-stroke"  transform=" translate(-2169.23, -2344.01)" d="M 2157 2354 C 2144 2341 2150 2330 2171 2330 C 2182 2330 2190 2335 2188 2342 C 2183 2356 2166 2363 2157 2354 z" stroke-linecap="round" />
</g>
		<g transform="matrix(0.13 0 0 -0.13 37.21 -45.29)"  >
<path style="stroke: none; stroke-width: 1; stroke-dasharray: none; stroke-linecap: butt; stroke-dashoffset: 0; stroke-linejoin: miter; stroke-miterlimit: 4; fill: rgb(255,255,255); fill-rule: nonzero; opacity: 1;" vector-effect="non-scaling-stroke"  transform=" translate(-2279.45, -2336.2)" d="M 2265 2341 C 2258 2329 2277 2317 2290 2325 C 2301 2332 2294 2350 2280 2350 C 2275 2350 2269 2346 2265 2341 z" stroke-linecap="round" />
</g>
		<g transform="matrix(0.13 0 0 -0.13 85.54 -43.82)"  >
<path style="stroke: none; stroke-width: 1; stroke-dasharray: none; stroke-linecap: butt; stroke-dashoffset: 0; stroke-linejoin: miter; stroke-miterlimit: 4; fill: rgb(255,255,255); fill-rule: nonzero; opacity: 1;" vector-effect="non-scaling-stroke"  transform=" translate(-2641.89, -2325.19)" d="M 2627 2334 C 2618 2324 2629 2310 2646 2310 C 2654 2310 2660 2317 2660 2325 C 2660 2340 2639 2346 2627 2334 z" stroke-linecap="round" />
</g>
		<g transform="matrix(0.13 0 0 -0.13 72.96 -42.1)"  >
<path style="stroke: none; stroke-width: 1; stroke-dasharray: none; stroke-linecap: butt; stroke-dashoffset: 0; stroke-linejoin: miter; stroke-miterlimit: 4; fill: rgb(255,255,255); fill-rule: nonzero; opacity: 1;" vector-effect="non-scaling-stroke"  transform=" translate(-2547.56, -2312.27)" d="M 2530 2316 C 2530 2308 2534 2299 2539 2296 C 2550 2289 2572 2314 2563 2323 C 2551 2335 2530 2330 2530 2316 z" stroke-linecap="round" />
</g>
		<g transform="matrix(0.13 0 0 -0.13 54.86 -41.3)"  >
<path style="stroke: none; stroke-width: 1; stroke-dasharray: none; stroke-linecap: butt; stroke-dashoffset: 0; stroke-linejoin: miter; stroke-miterlimit: 4; fill: rgb(255,255,255); fill-rule: nonzero; opacity: 1;" vector-effect="non-scaling-stroke"  transform=" translate(-2411.81, -2306.29)" d="M 2395 2311 C 2392 2306 2394 2299 2400 2295 C 2412 2288 2430 2297 2430 2311 C 2430 2323 2403 2323 2395 2311 z" stroke-linecap="round" />
</g>
		<g transform="matrix(0.13 0 0 -0.13 -57.22 0.84)"  >
<path style="stroke: none; stroke-width: 1; stroke-dasharray: none; stroke-linecap: butt; stroke-dashoffset: 0; stroke-linejoin: miter; stroke-miterlimit: 4; fill: rgb(255,255,255); fill-rule: nonzero; opacity: 1;" vector-effect="non-scaling-stroke"  transform=" translate(-1571.21, -1990.24)" d="M 1556 2002 C 1554 1998 1555 1988 1560 1980 C 1567 1969 1572 1968 1581 1977 C 1587 1983 1589 1993 1586 1999 C 1578 2012 1563 2013 1556 2002 z" stroke-linecap="round" />
</g>
		<g transform="matrix(0.13 0 0 -0.13 44.29 7.5)"  >
<path style="stroke: none; stroke-width: 1; stroke-dasharray: none; stroke-linecap: butt; stroke-dashoffset: 0; stroke-linejoin: miter; stroke-miterlimit: 4; fill: rgb(255,255,255); fill-rule: nonzero; opacity: 1;" vector-effect="non-scaling-stroke"  transform=" translate(-2332.5, -1940.32)" d="M 2320 1940 C 2320 1927 2325 1920 2333 1923 C 2339 1925 2345 1933 2345 1940 C 2345 1947 2339 1955 2333 1958 C 2325 1960 2320 1953 2320 1940 z" stroke-linecap="round" />
</g>
		<g transform="matrix(0.13 0 0 -0.13 -45.4 19.18)"  >
<path style="stroke: none; stroke-width: 1; stroke-dasharray: none; stroke-linecap: butt; stroke-dashoffset: 0; stroke-linejoin: miter; stroke-miterlimit: 4; fill: rgb(255,255,255); fill-rule: nonzero; opacity: 1;" vector-effect="non-scaling-stroke"  transform=" translate(-1659.88, -1852.71)" d="M 1644 1859 C 1641 1853 1642 1844 1646 1840 C 1658 1828 1684 1845 1676 1859 C 1667 1873 1653 1873 1644 1859 z" stroke-linecap="round" />
</g>
		<g transform="matrix(0.13 0 0 -0.13 33.53 21.83)"  >
<path style="stroke: none; stroke-width: 1; stroke-dasharray: none; stroke-linecap: butt; stroke-dashoffset: 0; stroke-linejoin: miter; stroke-miterlimit: 4; fill: rgb(255,255,255); fill-rule: nonzero; opacity: 1;" vector-effect="non-scaling-stroke"  transform=" translate(-2251.81, -1832.8)" d="M 2236 1841 C 2233 1836 2237 1827 2244 1821 C 2260 1808 2276 1823 2265 1840 C 2257 1852 2243 1853 2236 1841 z" stroke-linecap="round" />
</g>
		<g transform="matrix(0.13 0 0 -0.13 18.51 30.06)"  >
<path style="stroke: none; stroke-width: 1; stroke-dasharray: none; stroke-linecap: butt; stroke-dashoffset: 0; stroke-linejoin: miter; stroke-miterlimit: 4; fill: rgb(255,255,255); fill-rule: nonzero; opacity: 1;" vector-effect="non-scaling-stroke"  transform=" translate(-2139.19, -1771.07)" d="M 2124 1779 C 2114 1762 2137 1743 2151 1757 C 2163 1769 2155 1790 2140 1790 C 2135 1790 2128 1785 2124 1779 z" stroke-linecap="round" />
</g>
		<g transform="matrix(0.13 0 0 -0.13 -21.89 31.31)"  >
<path style="stroke: none; stroke-width: 1; stroke-dasharray: none; stroke-linecap: butt; stroke-dashoffset: 0; stroke-linejoin: miter; stroke-miterlimit: 4; fill: rgb(255,255,255); fill-rule: nonzero; opacity: 1;" vector-effect="non-scaling-stroke"  transform=" translate(-1836.2, -1761.75)" d="M 1825 1770 C 1817 1757 1829 1738 1841 1745 C 1853 1753 1853 1780 1841 1780 C 1835 1780 1828 1776 1825 1770 z" stroke-linecap="round" />
</g>
		<g transform="matrix(0.13 0 0 -0.13 1.93 35.79)"  >
<path style="stroke: none; stroke-width: 1; stroke-dasharray: none; stroke-linecap: butt; stroke-dashoffset: 0; stroke-linejoin: miter; stroke-miterlimit: 4; fill: rgb(255,255,255); fill-rule: nonzero; opacity: 1;" vector-effect="non-scaling-stroke"  transform=" translate(-2014.81, -1728.11)" d="M 2006 1743 C 1994 1731 2000 1710 2015 1710 C 2023 1710 2030 1716 2030 1724 C 2030 1741 2016 1752 2006 1743 z" stroke-linecap="round" />
</g>
		<g transform="matrix(0.13 0 0 -0.13 17.3 60.67)"  >
<path style="stroke: none; stroke-width: 1; stroke-dasharray: none; stroke-linecap: butt; stroke-dashoffset: 0; stroke-linejoin: miter; stroke-miterlimit: 4; fill: rgb(255,255,255); fill-rule: nonzero; opacity: 1;" vector-effect="non-scaling-stroke"  transform=" translate(-2130.08, -1541.54)" d="M 2105 1664 C 2130 1604 2140 1565 2148 1489 L 2157 1405 L 2159 1471 C 2160 1540 2130 1663 2108 1676 C 2100 1681 2099 1677 2105 1664 z" stroke-linecap="round" />
</g>
		<g transform="matrix(0.13 0 0 -0.13 -121.57 50.13)"  >
<path style="stroke: none; stroke-width: 1; stroke-dasharray: none; stroke-linecap: butt; stroke-dashoffset: 0; stroke-linejoin: miter; stroke-miterlimit: 4; fill: rgb(255,255,255); fill-rule: nonzero; opacity: 1;" vector-effect="non-scaling-stroke"  transform=" translate(-1088.54, -1620.54)" d="M 921 1831 C 912 1825 928 1824 966 1827 C 1022 1832 1028 1830 1070 1798 C 1154 1735 1208 1629 1238 1470 C 1247 1423 1256 1393 1258 1403 C 1263 1429 1232 1565 1205 1632 C 1174 1709 1127 1775 1078 1811 C 1045 1834 1027 1840 986 1840 C 958 1840 929 1836 921 1831 z" stroke-linecap="round" />
</g>
		<g transform="matrix(0.13 0 0 -0.13 9.86 98.13)"  >
<path style="stroke: none; stroke-width: 1; stroke-dasharray: none; stroke-linecap: butt; stroke-dashoffset: 0; stroke-linejoin: miter; stroke-miterlimit: 4; fill: rgb(255,255,255); fill-rule: nonzero; opacity: 1;" vector-effect="non-scaling-stroke"  transform=" translate(-2074.27, -1260.55)" d="M 2021 1291 C 2046 1287 2089 1270 2119 1251 C 2189 1206 2193 1216 2123 1263 C 2077 1293 2058 1300 2021 1299 L 1975 1297 L 2021 1291 z" stroke-linecap="round" />
</g>
		<g transform="matrix(0.13 0 0 -0.13 0.66 99.12)"  >
<path style="stroke: none; stroke-width: 1; stroke-dasharray: none; stroke-linecap: butt; stroke-dashoffset: 0; stroke-linejoin: miter; stroke-miterlimit: 4; fill: rgb(255,255,255); fill-rule: nonzero; opacity: 1;" vector-effect="non-scaling-stroke"  transform=" translate(-2005.31, -1253.14)" d="M 1966 1269 C 2000 1265 2047 1252 2070 1240 C 2093 1228 2109 1224 2105 1230 C 2090 1255 2015 1280 1960 1279 L 1905 1277 L 1966 1269 z" stroke-linecap="round" />
</g>
		<g transform="matrix(0.13 0 0 -0.13 -169.07 162.93)"  >
<path style="stroke: none; stroke-width: 1; stroke-dasharray: none; stroke-linecap: butt; stroke-dashoffset: 0; stroke-linejoin: miter; stroke-miterlimit: 4; fill: rgb(255,255,255); fill-rule: nonzero; opacity: 1;" vector-effect="non-scaling-stroke"  transform=" translate(-732.35, -774.6)" d="M 723 793 C 706 787 707 763 724 757 C 745 749 764 774 748 787 C 741 793 729 795 723 793 z" stroke-linecap="round" />
</g>
		<g transform="matrix(0.13 0 0 -0.13 -175.3 178.2)"  >
<path style="stroke: none; stroke-width: 1; stroke-dasharray: none; stroke-linecap: butt; stroke-dashoffset: 0; stroke-linejoin: miter; stroke-miterlimit: 4; fill: rgb(255,255,255); fill-rule: nonzero; opacity: 1;" vector-effect="non-scaling-stroke"  transform=" translate(-685.57, -660.02)" d="M 665 670 C 661 663 662 654 668 648 C 682 634 713 646 708 663 C 702 679 674 684 665 670 z" stroke-linecap="round" />
</g>
		<g transform="matrix(0.13 0 0 -0.13 -174.56 190.19)"  >
<path style="stroke: none; stroke-width: 1; stroke-dasharray: none; stroke-linecap: butt; stroke-dashoffset: 0; stroke-linejoin: miter; stroke-miterlimit: 4; fill: rgb(255,255,255); fill-rule: nonzero; opacity: 1;" vector-effect="non-scaling-stroke"  transform=" translate(-691.17, -570.15)" d="M 675 580 C 667 566 678 550 696 550 C 704 550 710 559 710 570 C 710 591 686 598 675 580 z M 700 570 C 700 565 698 560 696 560 C 693 560 688 565 685 570 C 682 576 684 580 689 580 C 695 580 700 576 700 570 z" stroke-linecap="round" />
</g>
		<g transform="matrix(0.13 0 0 -0.13 199.29 -108.31)"  >
<path style="stroke: none; stroke-width: 1; stroke-dasharray: none; stroke-linecap: butt; stroke-dashoffset: 0; stroke-linejoin: miter; stroke-miterlimit: 4; fill: rgb(255,255,255); fill-rule: nonzero; opacity: 1;" vector-effect="non-scaling-stroke"  transform=" translate(-3495, -2808.87)" d="M 3430 2864 C 3430 2852 3493 2750 3501 2750 C 3509 2750 3560 2826 3560 2839 C 3560 2844 3543 2851 3523 2854 C 3502 2858 3473 2863 3458 2866 C 3442 2869 3430 2868 3430 2864 z M 3512 2844 L 3549 2838 L 3527 2804 C 3515 2785 3503 2770 3500 2770 C 3497 2770 3485 2788 3472 2810 C 3448 2853 3449 2854 3512 2844 z" stroke-linecap="round" />
</g>
		<g transform="matrix(0.13 0 0 -0.13 127.32 -25.82)"  >
<path style="stroke: none; stroke-width: 1; stroke-dasharray: none; stroke-linecap: butt; stroke-dashoffset: 0; stroke-linejoin: miter; stroke-miterlimit: 4; fill: rgb(255,255,255); fill-rule: nonzero; opacity: 1;" vector-effect="non-scaling-stroke"  transform=" translate(-2955.25, -2190.18)" d="M 2952 2190 C 2952 2176 2954 2171 2957 2178 C 2959 2184 2959 2196 2957 2203 C 2954 2209 2952 2204 2952 2190 z" stroke-linecap="round" />
</g>
		<g transform="matrix(0.13 0 0 -0.13 122.17 -19.76)"  >
<path style="stroke: none; stroke-width: 1; stroke-dasharray: none; stroke-linecap: butt; stroke-dashoffset: 0; stroke-linejoin: miter; stroke-miterlimit: 4; fill: rgb(255,255,255); fill-rule: nonzero; opacity: 1;" vector-effect="non-scaling-stroke"  transform=" translate(-2916.61, -2144.75)" d="M 2903 2143 C 2912 2141 2926 2141 2933 2143 C 2939 2146 2932 2148 2915 2148 C 2899 2148 2893 2146 2903 2143 z" stroke-linecap="round" />
</g>
		<g transform="matrix(0.13 0 0 -0.13 132.84 -19.76)"  >
<path style="stroke: none; stroke-width: 1; stroke-dasharray: none; stroke-linecap: butt; stroke-dashoffset: 0; stroke-linejoin: miter; stroke-miterlimit: 4; fill: rgb(255,255,255); fill-rule: nonzero; opacity: 1;" vector-effect="non-scaling-stroke"  transform=" translate(-2996.61, -2144.75)" d="M 2983 2143 C 2992 2141 3006 2141 3013 2143 C 3019 2146 3012 2148 2995 2148 C 2979 2148 2973 2146 2983 2143 z" stroke-linecap="round" />
</g>
		<g transform="matrix(0.13 0 0 -0.13 127.32 -13.82)"  >
<path style="stroke: none; stroke-width: 1; stroke-dasharray: none; stroke-linecap: butt; stroke-dashoffset: 0; stroke-linejoin: miter; stroke-miterlimit: 4; fill: rgb(255,255,255); fill-rule: nonzero; opacity: 1;" vector-effect="non-scaling-stroke"  transform=" translate(-2955.25, -2100.18)" d="M 2952 2100 C 2952 2086 2954 2081 2957 2088 C 2959 2094 2959 2106 2957 2113 C 2954 2119 2952 2114 2952 2100 z" stroke-linecap="round" />
</g>
		<g transform="matrix(0.13 0 0 -0.13 144.54 6.54)"  >
<path style="stroke: none; stroke-width: 1; stroke-dasharray: none; stroke-linecap: butt; stroke-dashoffset: 0; stroke-linejoin: miter; stroke-miterlimit: 4; fill: rgb(255,255,255); fill-rule: nonzero; opacity: 1;" vector-effect="non-scaling-stroke"  transform=" translate(-3084.41, -1947.5)" d="M 3060 1965 C 3040 1940 3052 1915 3085 1915 C 3106 1915 3116 1920 3118 1933 C 3122 1954 3104 1980 3085 1980 C 3078 1980 3067 1973 3060 1965 z M 3108 1943 C 3113 1926 3082 1914 3068 1928 C 3062 1934 3061 1943 3065 1950 C 3074 1964 3102 1959 3108 1943 z" stroke-linecap="round" />
</g>
		<g transform="matrix(0.13 0 0 -0.13 -235.46 89.25)"  >
<path style="stroke: none; stroke-width: 1; stroke-dasharray: none; stroke-linecap: butt; stroke-dashoffset: 0; stroke-linejoin: miter; stroke-miterlimit: 4; fill: rgb(255,255,255); fill-rule: nonzero; opacity: 1;" vector-effect="non-scaling-stroke"  transform=" translate(-234.43, -1327.19)" d="M 210 1345 C 190 1320 202 1295 235 1295 C 259 1295 266 1300 268 1319 C 274 1356 234 1374 210 1345 z M 253 1334 C 262 1324 249 1300 235 1300 C 218 1300 207 1317 215 1330 C 222 1341 243 1343 253 1334 z" stroke-linecap="round" />
</g>
		<g transform="matrix(0.13 0 0 -0.13 -220.48 118.87)"  >
<path style="stroke: none; stroke-width: 1; stroke-dasharray: none; stroke-linecap: butt; stroke-dashoffset: 0; stroke-linejoin: miter; stroke-miterlimit: 4; fill: rgb(255,255,255); fill-rule: nonzero; opacity: 1;" vector-effect="non-scaling-stroke"  transform=" translate(-346.73, -1105.03)" d="M 316 1109 C 302 1076 290 1047 290 1044 C 290 1038 396 1039 403 1046 C 409 1052 354 1170 346 1170 C 344 1170 331 1143 316 1109 z M 374 1088 L 389 1050 L 349 1050 C 328 1050 310 1052 310 1055 C 310 1057 317 1078 326 1100 C 344 1145 351 1143 374 1088 z" stroke-linecap="round" />
</g>
</g>
</g>
</svg>