<?xml version="1.0" encoding="UTF-8" standalone="no" ?>
<!DOCTYPE svg PUBLIC "-//W3C//DTD SVG 1.1//EN" "http://www.w3.org/Graphics/SVG/1.1/DTD/svg11.dtd">
<svg xmlns="http://www.w3.org/2000/svg" xmlns:xlink="http://www.w3.org/1999/xlink" version="1.1" width="1080" height="1080" viewBox="0 0 1080 1080" xml:space="preserve">
<desc>Created with Fabric.js 5.2.4</desc>
<defs>
</defs>
<rect x="0" y="0" width="100%" height="100%" fill="transparent"></rect>
<g transform="matrix(1 0 0 1 540 540)" id="4987522f-a449-4859-9dc6-eac7d6feaebb"  >
<rect style="stroke: none; stroke-width: 1; stroke-dasharray: none; stroke-linecap: butt; stroke-dashoffset: 0; stroke-linejoin: miter; stroke-miterlimit: 4; fill: rgb(255,255,255); fill-rule: nonzero; opacity: 1; visibility: hidden;" vector-effect="non-scaling-stroke"  x="-540" y="-540" rx="0" ry="0" width="1080" height="1080" />
</g>
<g transform="matrix(1 0 0 1 540 540)" id="18eed1b3-61c7-478d-868f-1b388ef0cbde"  >
</g>
<g transform="matrix(1.09 0 0 1.09 539.59 539.6)"  >
<g style="" vector-effect="non-scaling-stroke"   >
		<g transform="matrix(0.13 0 0 -0.13 46.1 -221.33)"  >
<path style="stroke: none; stroke-width: 1; stroke-dasharray: none; stroke-linecap: butt; stroke-dashoffset: 0; stroke-linejoin: miter; stroke-miterlimit: 4; fill: rgb(255,255,255); fill-rule: nonzero; opacity: 1;" vector-effect="non-scaling-stroke"  transform=" translate(-2344.23, -3657.5)" d="M 2310 3748 C 2338 3618 2361 3538 2375 3510 L 2389 3485 L 2390 3510 C 2390 3543 2310 3830 2300 3830 C 2296 3830 2300 3793 2310 3748 z" stroke-linecap="round" />
</g>
		<g transform="matrix(0.13 0 0 -0.13 83.74 -219.8)"  >
<path style="stroke: none; stroke-width: 1; stroke-dasharray: none; stroke-linecap: butt; stroke-dashoffset: 0; stroke-linejoin: miter; stroke-miterlimit: 4; fill: rgb(255,255,255); fill-rule: nonzero; opacity: 1;" vector-effect="non-scaling-stroke"  transform=" translate(-2626.58, -3645.99)" d="M 2636 3689 C 2560 3529 2550 3501 2561 3494 C 2575 3486 2708 3785 2695 3798 C 2693 3801 2666 3752 2636 3689 z" stroke-linecap="round" />
</g>
		<g transform="matrix(0.13 0 0 -0.13 18.51 -203.69)"  >
<path style="stroke: none; stroke-width: 1; stroke-dasharray: none; stroke-linecap: butt; stroke-dashoffset: 0; stroke-linejoin: miter; stroke-miterlimit: 4; fill: rgb(255,255,255); fill-rule: nonzero; opacity: 1;" vector-effect="non-scaling-stroke"  transform=" translate(-2137.35, -3525.17)" d="M 2028 3625 C 2042 3597 2225 3420 2239 3420 C 2257 3420 2253 3426 2193 3482 C 2049 3616 2018 3644 2028 3625 z" stroke-linecap="round" />
</g>
		<g transform="matrix(0.13 0 0 -0.13 110 -188.88)"  >
<path style="stroke: none; stroke-width: 1; stroke-dasharray: none; stroke-linecap: butt; stroke-dashoffset: 0; stroke-linejoin: miter; stroke-miterlimit: 4; fill: rgb(255,255,255); fill-rule: nonzero; opacity: 1;" vector-effect="non-scaling-stroke"  transform=" translate(-2823.47, -3414.08)" d="M 2818 3423 C 2712 3373 2679 3350 2711 3350 C 2726 3350 2903 3439 2931 3461 C 2971 3492 2941 3482 2818 3423 z" stroke-linecap="round" />
</g>
		<g transform="matrix(0.13 0 0 -0.13 -81.31 24.21)"  >
<path style="stroke: none; stroke-width: 1; stroke-dasharray: none; stroke-linecap: butt; stroke-dashoffset: 0; stroke-linejoin: miter; stroke-miterlimit: 4; fill: rgb(255,255,255); fill-rule: nonzero; opacity: 1;" vector-effect="non-scaling-stroke"  transform=" translate(-1388.71, -1815.95)" d="M 1071 3456 C 1058 3441 1011 3256 975 3075 C 937 2888 900 2614 900 2522 C 900 2446 902 2439 923 2429 C 935 2424 1055 2398 1190 2371 L 1435 2324 L 1220 2317 C 960 2308 790 2294 776 2280 C 769 2273 764 2172 761 1995 L 758 1721 L 683 1784 C 586 1866 511 1910 461 1917 C 422 1922 395 1950 421 1959 C 453 1969 470 2001 470 2049 C 470 2185 372 2256 290 2180 C 261 2153 258 2145 263 2111 C 266 2088 263 2067 256 2060 C 248 2051 251 2044 267 2030 C 284 2017 290 2001 290 1972 C 290 1938 287 1931 264 1926 C 219 1914 153 1843 129 1782 C 87 1669 93 1421 141 1277 C 160 1220 160 1219 141 1117 C 110 960 100 839 100 627 C 100 373 106 310 132 310 C 149 310 151 305 145 271 C 135 213 162 198 266 202 C 362 206 368 219 291 264 C 229 300 216 320 254 320 C 282 320 283 324 349 564 C 366 623 381 674 383 676 C 385 679 392 618 399 543 C 417 334 417 330 446 330 C 467 330 470 326 470 291 C 470 236 484 229 586 232 C 697 236 705 250 616 290 C 580 306 550 323 550 327 C 550 332 563 340 579 346 C 613 359 615 369 635 578 C 655 779 664 1070 654 1155 C 649 1194 646 1278 648 1342 L 651 1459 L 700 1475 C 727 1484 753 1489 758 1486 C 763 1483 770 1436 773 1382 C 776 1328 780 1277 782 1270 C 784 1260 768 1253 733 1247 L 681 1239 L 674 1172 C 659 1031 685 252 706 218 C 711 211 837 210 1105 215 C 1460 221 1498 221 1503 206 C 1511 185 1576 184 1587 205 C 1594 216 1630 220 1772 222 L 1949 225 L 1952 195 C 1955 169 1959 165 1985 165 C 2009 165 2016 170 2024 198 C 2032 227 2037 230 2071 230 L 2110 230 L 2110 380 C 2110 463 2114 530 2118 530 C 2122 530 2148 461 2175 378 C 2203 294 2229 222 2235 218 C 2247 209 2294 208 2303 216 C 2306 219 2300 246 2290 276 L 2271 330 L 2293 335 C 2305 337 2370 341 2438 342 L 2560 345 L 2583 275 C 2606 206 2607 205 2644 202 C 2680 199 2681 200 2674 227 C 2661 283 2487 778 2434 912 C 2404 987 2380 1058 2380 1069 C 2380 1091 2384 1091 2165 1094 L 2106 1095 L 2094 1185 C 2088 1235 2084 1275 2084 1275 C 2085 1275 2094 1280 2105 1286 C 2123 1296 2125 1309 2128 1403 L 2131 1509 L 2193 1459 C 2279 1389 2402 1318 2414 1330 C 2431 1347 2439 1341 2464 1292 C 2525 1172 2557 1211 2516 1355 C 2506 1387 2498 1396 2472 1404 C 2448 1410 2440 1419 2440 1435 C 2440 1462 2357 1581 2296 1640 C 2253 1681 2250 1688 2250 1735 C 2250 1903 2208 2066 2148 2135 L 2109 2179 L 2121 2239 C 2129 2283 2138 2301 2151 2305 C 2162 2309 2170 2318 2170 2327 C 2170 2339 2173 2340 2184 2331 C 2212 2307 2262 2358 2239 2386 C 2231 2396 2235 2409 2259 2439 C 2276 2461 2303 2505 2318 2537 C 2342 2589 2345 2605 2344 2695 C 2343 2753 2336 2815 2327 2843 C 2313 2886 2313 2901 2330 3003 C 2358 3178 2361 3234 2346 3255 C 2331 3276 2239 3295 1800 3369 C 1523 3416 1284 3451 1144 3465 C 1098 3469 1080 3467 1071 3456 z M 1281 3430 C 1538 3400 2299 3269 2329 3250 C 2346 3240 2335 3142 2285 2846 C 2257 2683 2247 2643 2229 2623 C 2207 2600 2206 2600 2186 2619 C 2174 2629 2152 2644 2135 2651 C 2106 2665 2105 2668 2105 2731 C 2105 2806 2096 2821 2036 2852 C 1932 2905 1829 2817 1826 2674 C 1825 2638 1830 2624 1848 2610 C 1870 2592 1869 2560 1846 2560 C 1840 2560 1775 2586 1702 2617 C 1572 2672 1568 2675 1545 2720 C 1532 2745 1495 2800 1462 2843 C 1421 2895 1400 2933 1395 2960 C 1388 3000 1370 3016 1370 2983 C 1370 2969 1365 2971 1345 2993 C 1315 3025 1306 3027 1313 3001 C 1316 2987 1313 2984 1299 2987 C 1279 2993 1273 2976 1291 2964 C 1297 2961 1299 2947 1296 2935 C 1291 2915 1295 2909 1325 2899 C 1355 2888 1360 2881 1370 2836 C 1403 2676 1456 2590 1584 2480 C 1625 2445 1656 2413 1651 2410 C 1646 2407 1639 2387 1635 2366 C 1629 2338 1630 2329 1639 2334 C 1645 2338 1650 2354 1650 2370 C 1650 2410 1661 2413 1708 2388 C 1734 2373 1752 2355 1760 2332 C 1766 2314 1770 2296 1767 2294 C 1755 2282 935 2434 916 2451 C 896 2469 951 2860 1021 3198 C 1063 3402 1078 3450 1098 3450 C 1107 3450 1190 3441 1281 3430 z M 1380 2935 C 1380 2928 1408 2885 1441 2839 C 1475 2794 1517 2734 1535 2705 C 1567 2656 1573 2651 1685 2605 C 1749 2579 1814 2545 1830 2530 C 1870 2492 1871 2443 1832 2399 C 1805 2369 1802 2368 1769 2379 C 1721 2394 1574 2507 1508 2579 C 1452 2639 1436 2674 1383 2845 C 1369 2891 1360 2906 1342 2910 C 1321 2915 1321 2916 1335 2937 C 1351 2960 1380 2958 1380 2935 z M 2327 2720 C 2330 2660 2327 2621 2317 2587 C 2299 2531 2229 2419 2215 2424 C 2209 2426 2206 2460 2207 2505 C 2210 2574 2213 2586 2239 2615 C 2263 2643 2271 2667 2286 2750 C 2307 2869 2318 2860 2327 2720 z M 1904 2754 C 1913 2746 1920 2730 1920 2719 C 1920 2709 1927 2700 1935 2700 C 1958 2700 1953 2682 1925 2664 C 1898 2647 1892 2613 1910 2579 C 1919 2563 1917 2560 1899 2560 C 1883 2560 1880 2564 1884 2577 C 1888 2587 1882 2602 1868 2617 C 1853 2633 1846 2653 1846 2678 C 1846 2760 1869 2790 1904 2754 z M 1941 2513 C 1953 2482 1945 2440 1919 2388 C 1900 2351 1900 2351 1922 2336 C 1948 2318 1996 2315 2005 2330 C 2009 2337 2021 2331 2034 2317 C 2051 2298 2064 2294 2085 2297 C 2112 2303 2112 2303 2105 2259 C 2093 2179 2098 2183 2002 2178 C 1944 2174 1898 2166 1867 2152 L 1820 2131 L 1820 2188 C 1820 2223 1812 2262 1800 2289 C 1775 2344 1775 2348 1804 2356 C 1848 2367 1875 2406 1875 2458 C 1875 2484 1871 2513 1866 2523 C 1859 2537 1863 2540 1894 2540 C 1924 2540 1932 2535 1941 2513 z M 1514 2284 C 1532 2238 1569 1295 1554 1280 C 1549 1275 1380 1270 1178 1268 C 858 1265 809 1267 804 1280 C 792 1311 787 1510 798 1510 C 804 1510 825 1525 844 1544 C 879 1576 919 1590 982 1590 C 1013 1590 1029 1608 1009 1621 C 997 1629 998 1632 1013 1641 C 1022 1646 1030 1660 1030 1672 C 1030 1688 1025 1691 1005 1688 C 984 1684 982 1685 991 1701 C 1003 1725 984 1727 953 1705 C 937 1693 930 1693 927 1703 C 923 1711 912 1704 893 1683 C 873 1660 853 1649 823 1644 L 780 1637 L 780 1916 C 780 2255 782 2268 824 2275 C 889 2287 1093 2297 1296 2299 C 1484 2300 1509 2298 1514 2284 z M 1685 2285 C 1739 2277 1787 2265 1792 2258 C 1806 2236 1794 2089 1772 2012 C 1742 1910 1726 1745 1734 1620 C 1740 1524 1762 1359 1776 1303 C 1782 1280 1781 1280 1687 1280 C 1610 1280 1591 1283 1586 1296 C 1583 1305 1580 1371 1580 1443 C 1580 1706 1551 2225 1534 2283 C 1527 2305 1552 2305 1685 2285 z M 418 2162 C 468 2093 466 2006 414 1980 C 387 1966 386 1963 396 1941 C 403 1928 414 1914 420 1910 C 451 1891 385 1855 347 1869 C 303 1886 290 1907 301 1942 C 316 1996 312 2027 290 2033 C 279 2036 270 2043 270 2050 C 270 2057 278 2059 289 2055 C 306 2050 310 2055 315 2097 C 320 2132 329 2151 348 2167 C 383 2197 394 2196 418 2162 z M 2070 1942 C 2070 1879 2045 1711 2034 1701 C 2031 1698 2030 1720 2034 1750 C 2038 1780 2043 1851 2047 1907 C 2053 2015 2070 2040 2070 1942 z M 346 1851 C 381 1841 419 1853 441 1882 C 453 1897 464 1901 481 1897 C 552 1878 760 1706 760 1665 C 760 1635 756 1633 685 1625 L 625 1618 L 607 1677 C 587 1743 533 1837 512 1845 C 501 1849 502 1844 515 1824 C 554 1764 571 1731 590 1675 C 601 1643 609 1616 608 1614 C 606 1613 594 1609 580 1606 C 558 1600 548 1609 501 1665 C 413 1771 306 1850 248 1850 C 217 1850 235 1837 295 1815 C 335 1801 366 1776 450 1689 L 555 1581 L 677 1602 C 745 1614 801 1622 804 1619 C 806 1617 810 1598 814 1577 C 821 1540 821 1540 773 1519 C 747 1508 693 1489 654 1478 L 583 1457 L 559 1478 C 520 1515 472 1523 426 1500 L 386 1481 L 336 1510 C 308 1527 266 1554 243 1572 C 219 1589 197 1601 194 1598 C 185 1588 299 1503 370 1468 C 423 1441 446 1435 500 1435 C 536 1435 580 1438 598 1442 L 630 1450 L 630 1361 L 630 1272 L 548 1266 C 502 1262 398 1258 315 1257 L 166 1255 L 146 1320 C 131 1372 127 1419 126 1560 C 125 1733 125 1736 154 1793 C 172 1831 197 1862 223 1881 L 264 1910 L 290 1885 C 305 1871 330 1856 346 1851 z M 962 1638 C 959 1627 963 1614 971 1609 C 980 1603 971 1600 943 1600 C 920 1600 895 1597 886 1594 C 874 1589 870 1594 870 1613 C 870 1640 884 1656 915 1662 C 950 1669 968 1660 962 1638 z M 2086 1564 C 2096 1549 2103 1503 2107 1423 L 2113 1303 L 2059 1297 C 1958 1284 1960 1284 1966 1338 C 1975 1417 2000 1563 2011 1605 L 2022 1645 L 2047 1615 C 2060 1598 2078 1575 2086 1564 z M 853 1608 C 860 1583 853 1567 839 1575 C 827 1583 827 1630 839 1630 C 844 1630 850 1620 853 1608 z M 516 1484 C 568 1459 558 1447 490 1452 C 422 1457 407 1466 434 1486 C 459 1504 474 1504 516 1484 z M 2440 1378 C 2440 1360 2438 1359 2423 1371 C 2413 1378 2403 1385 2401 1387 C 2400 1388 2401 1393 2404 1399 C 2414 1415 2440 1400 2440 1378 z M 2504 1315 L 2510 1275 L 2495 1305 C 2479 1338 2474 1396 2489 1370 C 2494 1362 2501 1337 2504 1315 z M 1790 1239 C 1793 1226 1806 1211 1818 1205 C 1832 1199 1840 1186 1840 1172 C 1840 1154 1830 1144 1795 1129 C 1742 1106 1730 1091 1759 1083 C 1792 1074 1785 1037 1720 869 C 1687 784 1625 608 1583 478 L 1505 240 L 1333 240 L 1162 240 L 1155 282 C 1150 312 1131 1230 1135 1247 C 1136 1249 1762 1267 1775 1265 C 1780 1264 1787 1253 1790 1239 z M 2074 1214 C 2077 1188 2080 1150 2080 1129 L 2080 1090 L 1997 1090 L 1915 1090 L 1919 1137 C 1921 1169 1929 1189 1941 1198 C 1952 1205 1960 1222 1960 1236 C 1960 1258 1963 1260 2014 1260 L 2067 1260 L 2074 1214 z M 1124 778 C 1127 518 1131 289 1133 270 L 1135 235 L 929 232 L 722 230 L 716 292 C 697 480 683 1193 698 1217 C 708 1234 832 1247 986 1249 L 1117 1250 L 1124 778 z M 1900 1160 C 1900 1135 1896 1130 1877 1130 C 1857 1130 1854 1134 1858 1160 C 1861 1181 1868 1190 1881 1190 C 1895 1190 1900 1183 1900 1160 z M 456 957 C 427 820 399 720 393 735 C 391 741 408 824 430 919 C 452 1015 470 1096 471 1099 C 471 1102 474 1099 477 1092 C 479 1085 470 1025 456 957 z M 2370 1060 C 2370 1040 2363 1040 2085 1040 C 1840 1040 1800 1042 1800 1055 C 1800 1067 1830 1070 1983 1073 C 2083 1074 2211 1076 2268 1078 C 2364 1080 2370 1079 2370 1060 z M 1835 1003 C 1777 858 1649 476 1590 272 C 1574 215 1565 200 1550 200 C 1540 200 1529 204 1525 210 C 1514 228 1603 501 1744 879 C 1800 1027 1796 1020 1822 1020 C 1837 1020 1840 1016 1835 1003 z M 1942 980 L 1959 940 L 1895 940 C 1848 940 1832 943 1835 953 C 1858 1019 1859 1020 1892 1020 C 1921 1020 1927 1015 1942 980 z M 2090 975 C 2090 934 2088 930 2065 930 C 2041 930 2030 943 2010 994 C 2001 1020 2001 1020 2045 1020 L 2090 1020 L 2090 975 z M 2173 975 C 2161 938 2154 930 2134 930 C 2112 930 2110 934 2110 975 L 2110 1020 L 2149 1020 L 2189 1020 L 2173 975 z M 2188 818 C 2118 607 2024 283 2013 218 C 2008 186 2003 180 1984 180 C 1963 180 1960 183 1966 207 C 1988 308 2164 900 2199 993 C 2206 1011 2217 1020 2232 1020 C 2255 1020 2254 1016 2188 818 z M 2329 989 C 2345 942 2344 940 2294 940 C 2256 940 2249 943 2254 956 C 2257 965 2263 983 2266 996 C 2275 1033 2315 1028 2329 989 z M 2146 907 C 2150 904 2147 893 2139 884 C 2127 870 2108 869 1970 875 C 1885 879 1814 883 1812 885 C 1811 886 1813 895 1816 905 C 1822 921 1837 922 1981 918 C 2068 916 2142 911 2146 907 z M 2388 831 C 2395 810 2400 790 2400 786 C 2400 783 2355 780 2300 780 C 2245 780 2200 783 2200 788 C 2200 792 2205 812 2211 833 L 2221 870 L 2299 870 L 2377 870 L 2388 831 z M 2016 800 L 2038 745 L 1972 742 C 1935 741 1873 743 1834 747 L 1763 755 L 1783 808 L 1803 861 L 1898 858 L 1994 855 L 2016 800 z M 2087 838 C 2084 830 2081 833 2081 844 C 2080 855 2083 861 2086 857 C 2089 854 2090 845 2087 838 z M 2129 843 C 2129 833 2125 816 2120 805 C 2113 789 2111 792 2111 823 C 2110 843 2115 860 2120 860 C 2126 860 2130 852 2129 843 z M 2088 715 C 2089 714 2088 705 2084 696 C 2079 682 2059 680 1946 680 C 1776 680 1741 686 1748 712 C 1752 730 1759 731 1919 724 C 2010 721 2086 716 2088 715 z M 2452 659 L 2469 612 L 2357 606 C 2295 602 2229 598 2210 597 C 2179 595 2175 598 2167 627 C 2162 644 2160 670 2164 685 L 2171 711 L 2302 708 L 2434 705 L 2452 659 z M 2069 654 C 2070 653 2064 629 2055 601 L 2038 550 L 1869 550 C 1776 550 1700 553 1700 557 C 1700 560 1708 588 1717 617 L 1734 672 L 1900 665 C 1991 661 2067 656 2069 654 z M 2029 524 C 2031 522 2030 514 2027 505 C 2022 492 1995 490 1850 490 C 1754 490 1680 494 1680 499 C 1680 504 1683 516 1687 525 C 1692 541 1708 542 1859 535 C 1950 531 2027 526 2029 524 z M 2505 507 C 2512 489 2522 462 2525 448 L 2532 422 L 2423 416 C 2364 412 2300 408 2282 405 C 2252 401 2247 404 2234 436 C 2226 455 2217 484 2213 500 L 2208 529 L 2321 533 C 2384 534 2448 537 2463 538 C 2486 540 2493 534 2505 507 z M 2009 464 C 2011 463 2007 439 2000 411 L 1988 361 L 1817 367 C 1722 370 1644 374 1643 375 C 1641 376 1647 400 1656 429 L 1671 482 L 1838 475 C 1930 471 2007 466 2009 464 z M 2090 330 C 2090 241 2090 240 2065 240 C 2051 240 2040 245 2040 251 C 2040 267 2082 420 2087 420 C 2088 420 2090 380 2090 330 z M 1958 344 C 1984 339 1987 315 1964 306 C 1948 300 1787 306 1683 316 C 1639 321 1630 325 1630 341 C 1630 359 1637 360 1783 354 C 1866 351 1945 347 1958 344 z M 530 325 C 530 310 551 295 615 268 L 655 251 L 575 253 L 495 255 L 492 298 C 489 335 491 340 509 340 C 521 340 530 333 530 325 z M 220 290 C 226 279 252 259 278 245 L 325 221 L 255 221 C 168 220 159 225 167 273 C 173 315 202 324 220 290 z M 1967 286 C 1968 285 1967 274 1963 262 C 1958 240 1955 240 1779 240 C 1680 240 1600 242 1600 244 C 1600 247 1604 260 1610 274 L 1619 300 L 1792 293 C 1887 290 1966 287 1967 286 z" stroke-linecap="round" />
</g>
		<g transform="matrix(0.13 0 0 -0.13 -33.66 -131.66)"  >
<path style="stroke: none; stroke-width: 1; stroke-dasharray: none; stroke-linecap: butt; stroke-dashoffset: 0; stroke-linejoin: miter; stroke-miterlimit: 4; fill: rgb(255,255,255); fill-rule: nonzero; opacity: 1;" vector-effect="non-scaling-stroke"  transform=" translate(-1746.06, -2984.98)" d="M 1787 3245 C 1773 3185 1722 2913 1691 2730 C 1682 2678 1683 2660 1695 2672 C 1703 2680 1811 3283 1807 3300 C 1805 3308 1796 3284 1787 3245 z" stroke-linecap="round" />
</g>
		<g transform="matrix(0.13 0 0 -0.13 -213.13 -21.91)"  >
<path style="stroke: none; stroke-width: 1; stroke-dasharray: none; stroke-linecap: butt; stroke-dashoffset: 0; stroke-linejoin: miter; stroke-miterlimit: 4; fill: rgb(255,255,255); fill-rule: nonzero; opacity: 1;" vector-effect="non-scaling-stroke"  transform=" translate(-400, -2161.8)" d="M 390 2159 C 390 2154 395 2152 400 2155 C 406 2158 410 2163 410 2166 C 410 2168 406 2170 400 2170 C 395 2170 390 2165 390 2159 z" stroke-linecap="round" />
</g>
		<g transform="matrix(0.13 0 0 -0.13 -219.11 -18.64)"  >
<path style="stroke: none; stroke-width: 1; stroke-dasharray: none; stroke-linecap: butt; stroke-dashoffset: 0; stroke-linejoin: miter; stroke-miterlimit: 4; fill: rgb(255,255,255); fill-rule: nonzero; opacity: 1;" vector-effect="non-scaling-stroke"  transform=" translate(-355.15, -2137.3)" d="M 347 2143 C 335 2131 340 2121 355 2126 C 363 2130 370 2136 370 2141 C 370 2152 356 2153 347 2143 z" stroke-linecap="round" />
</g>
		<g transform="matrix(0.13 0 0 -0.13 -211.11 -13.84)"  >
<path style="stroke: none; stroke-width: 1; stroke-dasharray: none; stroke-linecap: butt; stroke-dashoffset: 0; stroke-linejoin: miter; stroke-miterlimit: 4; fill: rgb(255,255,255); fill-rule: nonzero; opacity: 1;" vector-effect="non-scaling-stroke"  transform=" translate(-415.17, -2101.33)" d="M 415 2127 C 401 2110 399 2058 414 2063 C 420 2065 425 2083 426 2103 C 427 2123 427 2140 426 2140 C 425 2139 420 2134 415 2127 z" stroke-linecap="round" />
</g>
		<g transform="matrix(0.13 0 0 -0.13 -212.32 -2.95)"  >
<path style="stroke: none; stroke-width: 1; stroke-dasharray: none; stroke-linecap: butt; stroke-dashoffset: 0; stroke-linejoin: miter; stroke-miterlimit: 4; fill: rgb(255,255,255); fill-rule: nonzero; opacity: 1;" vector-effect="non-scaling-stroke"  transform=" translate(-406.08, -2019.62)" d="M 387 2034 C 377 2024 391 2000 407 2000 C 415 2000 418 2005 415 2010 C 412 2016 415 2020 422 2020 C 431 2020 431 2023 420 2030 C 402 2041 396 2042 387 2034 z" stroke-linecap="round" />
</g>
		<g transform="matrix(0.13 0 0 -0.13 162.67 30.89)"  >
<path style="stroke: none; stroke-width: 1; stroke-dasharray: none; stroke-linecap: butt; stroke-dashoffset: 0; stroke-linejoin: miter; stroke-miterlimit: 4; fill: rgb(255,255,255); fill-rule: nonzero; opacity: 1;" vector-effect="non-scaling-stroke"  transform=" translate(-3218.5, -1765.79)" d="M 3565 3294 C 3179 3265 2774 3218 2655 3189 C 2585 3172 2540 3148 2540 3128 C 2540 3027 2617 2414 2646 2290 C 2678 2151 2678 2150 2709 2150 C 2724 2150 2751 2145 2768 2139 C 2797 2129 2799 2125 2795 2092 C 2790 2053 2814 1963 2861 1838 C 2905 1726 2952 1689 3118 1640 C 3141 1633 3160 1622 3160 1616 C 3160 1610 3151 1538 3140 1455 C 3129 1373 3120 1286 3120 1262 C 3120 1223 3123 1218 3151 1208 L 3182 1197 L 3176 1126 C 3163 992 3206 386 3231 339 C 3236 329 3250 320 3262 318 C 3281 315 3274 309 3228 285 C 3196 269 3170 252 3170 248 C 3170 229 3215 219 3273 225 C 3353 234 3366 242 3374 284 C 3378 306 3388 321 3399 325 C 3421 332 3425 358 3436 545 C 3442 649 3444 660 3452 625 C 3490 458 3521 345 3531 339 C 3538 335 3549 334 3557 337 C 3585 348 3568 314 3534 292 C 3515 279 3500 264 3503 257 C 3508 240 3566 238 3630 253 L 3685 265 L 3688 318 C 3690 355 3695 370 3706 370 C 3725 370 3724 410 3703 568 C 3691 661 3687 752 3689 905 C 3693 1206 3694 1214 3708 1225 C 3719 1234 3718 1259 3706 1367 C 3692 1487 3667 1631 3654 1664 C 3651 1671 3669 1686 3700 1700 C 3767 1731 3815 1786 3835 1852 C 3855 1920 3868 2134 3851 2144 C 3832 2156 3839 2183 3868 2215 L 3897 2245 L 3884 2580 C 3877 2764 3869 2944 3866 2980 C 3848 3171 3836 3267 3829 3288 C 3819 3314 3826 3314 3565 3294 z M 3822 3230 C 3839 3087 3870 2567 3870 2409 C 3870 2323 3867 2301 3855 2296 C 3846 2293 3840 2296 3840 2305 C 3840 2332 3821 2321 3802 2284 C 3790 2261 3780 2251 3776 2259 C 3765 2277 3740 2272 3740 2251 C 3740 2236 3729 2232 3663 2226 C 3621 2223 3583 2223 3579 2227 C 3575 2232 3560 2363 3546 2520 C 3515 2855 3482 3180 3474 3231 L 3468 3268 L 3566 3274 C 3621 3278 3674 3283 3685 3284 C 3696 3286 3730 3287 3760 3286 L 3815 3285 L 3822 3230 z M 3455 3228 C 3458 3210 3480 2988 3505 2735 C 3530 2482 3551 2263 3553 2247 C 3556 2225 3552 2218 3531 2213 C 3515 2209 3505 2211 3502 2220 C 3490 2254 3462 2267 3384 2273 C 3317 2278 3301 2277 3280 2261 C 3266 2251 3254 2233 3252 2221 C 3250 2210 3246 2200 3242 2200 C 3238 2200 3163 2193 3075 2185 C 2855 2165 2860 2164 2860 2196 C 2860 2218 2858 2221 2845 2210 C 2837 2203 2830 2191 2830 2184 C 2830 2173 2813 2170 2761 2170 L 2692 2170 L 2680 2223 C 2653 2350 2618 2576 2596 2782 C 2556 3146 2557 3138 2578 3149 C 2615 3169 2800 3197 3225 3249 C 3264 3254 3330 3258 3372 3259 L 3449 3260 L 3455 3228 z M 3843 2236 L 3875 2240 L 3849 2214 C 3829 2195 3817 2190 3797 2195 C 3783 2199 3769 2208 3766 2215 C 3763 2224 3766 2227 3775 2223 C 3784 2220 3793 2226 3797 2236 C 3801 2246 3805 2249 3807 2243 C 3809 2237 3825 2234 3843 2236 z M 3750 2197 C 3750 2184 3741 2147 3731 2114 C 3720 2082 3704 2028 3695 1996 L 3679 1937 L 3589 1943 C 3460 1953 3427 1981 3461 2050 C 3470 2069 3484 2110 3491 2142 L 3504 2198 L 3615 2208 C 3675 2213 3731 2218 3738 2218 C 3744 2219 3750 2210 3750 2197 z M 3254 2172 C 3257 2167 3255 2133 3249 2096 C 3237 2010 3245 1981 3281 1968 C 3323 1954 3317 1942 3263 1935 C 3236 1931 3175 1919 3125 1909 C 3044 1891 3034 1891 3025 1905 C 3020 1914 2980 1971 2938 2033 C 2896 2094 2863 2146 2865 2148 C 2868 2152 3145 2176 3212 2179 C 3232 2179 3251 2176 3254 2172 z M 3815 2170 C 3819 2164 3810 2160 3796 2160 C 3782 2160 3770 2165 3770 2170 C 3770 2176 3779 2180 3789 2180 C 3800 2180 3812 2176 3815 2170 z M 2840 2152 C 2840 2137 2829 2131 2813 2137 C 2801 2142 2801 2144 2812 2151 C 2829 2162 2840 2162 2840 2152 z M 3309 2141 C 3324 2131 3313 2103 3286 2080 C 3272 2069 3270 2073 3270 2109 C 3270 2150 3280 2159 3309 2141 z M 2840 2105 C 2813 2091 2804 2092 2815 2109 C 2818 2115 2831 2120 2843 2120 C 2864 2119 2864 2119 2840 2105 z M 3390 2101 C 3390 2089 3361 2066 3354 2073 C 3343 2083 3359 2110 3375 2110 C 3383 2110 3390 2106 3390 2101 z M 3395 1978 C 3371 1975 3345 1968 3338 1964 C 3331 1960 3333 1966 3344 1978 C 3363 2000 3420 2011 3432 1995 C 3437 1989 3422 1982 3395 1978 z M 3445 1960 C 3462 1953 3460 1951 3434 1951 C 3417 1950 3387 1947 3369 1944 C 3326 1935 3338 1950 3382 1960 C 3424 1970 3421 1970 3445 1960 z M 3610 1811 C 3621 1774 3630 1732 3629 1719 C 3629 1695 3580 1841 3580 1867 C 3580 1896 3590 1877 3610 1811 z M 3227 1786 C 3221 1726 3194 1643 3183 1653 C 3180 1656 3185 1680 3194 1706 C 3203 1732 3210 1778 3210 1807 C 3210 1845 3213 1859 3221 1854 C 3229 1850 3231 1827 3227 1786 z M 3676 1133 C 3658 904 3658 811 3675 645 C 3685 552 3694 455 3694 431 L 3695 386 L 3620 369 C 3579 359 3542 354 3538 358 C 3535 362 3513 447 3491 546 L 3450 728 L 3464 916 C 3472 1020 3475 1109 3471 1113 C 3461 1123 3456 1073 3430 700 C 3418 538 3407 390 3404 373 L 3399 340 L 3321 340 L 3243 340 L 3226 503 C 3207 695 3190 968 3190 1098 L 3190 1192 L 3243 1183 C 3325 1170 3538 1176 3595 1193 C 3685 1220 3683 1221 3676 1133 z" stroke-linecap="round" />
</g>
</g>
</g>
</svg>